<?xml version="1.0" encoding="utf-8"?>
<!-- Generator: Adobe Illustrator 26.5.0, SVG Export Plug-In . SVG Version: 6.00 Build 0)  -->
<svg version="1.1" id="Layer_1" xmlns="http://www.w3.org/2000/svg" xmlns:xlink="http://www.w3.org/1999/xlink" x="0px" y="0px"
	 viewBox="0 0 374.9 374.9" style="enable-background:new 0 0 374.9 374.9;" xml:space="preserve">
<style type="text/css">
	.st0{opacity:0.48;fill:#D0D0D0;enable-background:new    ;}
	.st1{opacity:0.18;fill:#D0D0D0;enable-background:new    ;}
	.st2{fill:#D0D0D0;}
	.st3{fill:url(#SVGID_1_);}
	.st4{fill:url(#SVGID_00000159440151102112443440000018200720310704343977_);}
	.st5{fill:#FFDAD2;}
	.st6{fill:#3F3D56;}
	.st7{fill:url(#SVGID_00000052094676509367075880000000562116531594345372_);}
	.st8{fill:#FFFFFF;}
	.st9{fill:none;stroke:#FFFFFF;stroke-width:3.04;stroke-miterlimit:9.21;}
	.st10{fill:url(#SVGID_00000061450881921308843690000015768151592350092684_);}
	.st11{fill:url(#SVGID_00000051383674262449189530000018076113247813410959_);}
	.st12{fill:url(#SVGID_00000089556472897348186510000000515226485635468160_);}
	.st13{fill:url(#SVGID_00000044896724816722304580000003539708228091580823_);}
	.st14{opacity:0.51;fill:#FFFFFF;enable-background:new    ;}
</style>
<path class="st0" d="M50.7,59.3h300.1c4.2,0,7.6,3.5,7.6,7.8v190.7c0,4.3-3.4,7.8-7.6,7.8H50.7c-4.2,0-7.6-3.5-7.6-7.8V67.1
	C43.1,62.8,46.5,59.3,50.7,59.3z"/>
<path class="st1" d="M352.2,280.6c-0.2,6.8-1.7,13.6-5.4,19.2c-4.7,7.1-12.2,11.4-19.6,15.5l-20.8,11.7
	c-9.1,5.1-18.7,10.4-29.1,10.5c-7.4,0.1-14.5-2.4-21.5-4.4c-33-9.7-67.8-11.1-102-8.6c-17.5,1.3-34.9,3.5-52.2,6.1
	c-13.9,2.1-30.5,9.1-43,0.8c-13.6-9-22-23.7-29.7-37.9c-6.7-12.3-13.5-25-15.7-38.9c-3.4-21.5,4.8-43.6,17.5-61.1
	c3.8-5.2,8-10.2,12.5-14.8v79c0,4.3,3.4,7.8,7.6,7.8h300.1C351.9,270.5,352.3,275.6,352.2,280.6L352.2,280.6z"/>
<path class="st1" d="M240.1,59.3h-80.2c3-2.3,6.3-4.3,9.8-5.9c6.3-2.8,13.3-4.1,20.2-4.6C207.1,47.6,224.5,51.5,240.1,59.3z"/>
<path class="st2" d="M166.7,239.6c0.8,1.1,1.7,2,2.8,2.7c1.6,0.9,3.3,1.4,5.1,1.5l27.2,4.2c0.3,0,0.5,0.1,0.8,0.3
	c0.3,0.3,0.5,0.8,0.4,1.3c0.1,5.2-0.6,10.4-2,15.4c-0.1,0.4-0.3,0.8-0.6,1.1c-0.4,0.3-0.8,0.4-1.2,0.4c-9.1,0.8-18.3,0.5-27.5,0.3
	c-1.5,0-3.1-0.2-4.6-0.5c-2.6-0.7-4.6-2.5-6.6-4.3c-4.1-3.9-20.8-19.7-21.9-21.8c-1.3-3.1-2.4-6.2-3.2-9.5c-0.9-3.1,5.4-3.5,5.2-6.8
	c-0.1-2.2,0.2-4.5,0.8-6.7c0.5-1.9,1.4-3.7,2.7-5.1c0.9-0.9-0.5-6.8,0.8-6.8c1.5,5.2,8.3,15.6,11.2,20.1
	C159.4,230.2,162.9,235,166.7,239.6L166.7,239.6z"/>
<linearGradient id="SVGID_1_" gradientUnits="userSpaceOnUse" x1="272.2756" y1="1164.3859" x2="318.9141" y2="1182.1595" gradientTransform="matrix(0.92 0 0 0.92 -111.03 -841.8052)">
	<stop  offset="0" style="stop-color:#000000"/>
	<stop  offset="0.12" style="stop-color:#000000;stop-opacity:0.75"/>
	<stop  offset="1" style="stop-color:#000000;stop-opacity:0"/>
</linearGradient>
<path class="st3" d="M166.7,239.6c0.8,1.1,1.7,2,2.8,2.7c1.6,0.9,3.3,1.4,5.1,1.5l27.2,4.2c0.3,0,0.5,0.1,0.8,0.3
	c0.3,0.3,0.5,0.8,0.4,1.3c0.1,5.2-0.6,10.4-2,15.4c-0.1,0.4-0.3,0.8-0.6,1.1c-0.4,0.3-0.8,0.4-1.2,0.4c-9.1,0.8-18.3,0.5-27.5,0.3
	c-1.5,0-3.1-0.2-4.6-0.5c-2.6-0.7-4.6-2.5-6.6-4.3c-4.1-3.9-20.8-19.7-21.9-21.8c-1.3-3.1-2.4-6.2-3.2-9.5c-0.9-3.1,5.4-3.5,5.2-6.8
	c-0.1-2.2,0.2-4.5,0.8-6.7c0.5-1.9,1.4-3.7,2.7-5.1c0.9-0.9-0.5-6.8,0.8-6.8c1.5,5.2,8.3,15.6,11.2,20.1
	C159.4,230.2,162.9,235,166.7,239.6L166.7,239.6z"/>
<path class="st2" d="M97.9,195.6c-1.8,1.7-3.5,3.5-5.1,5.4c-3.8,4.7-6.3,10.3-8.6,15.9c-6.2,14.9-11.6,30.8-10,46.9
	c0,1,0.3,1.9,0.7,2.8c0.7,1,1.8,1.6,2.9,1.9c3,1,6.2,1,9.4,1c12.3,0.1,24.6,0.2,36.8-0.4c1.9-0.1,3.9-0.2,5.5-1.3
	c1.1-0.9,2.1-2.1,2.7-3.4c3.3-6.3,4.3-13.6,6.8-20.3c3.4-8.7,12.8-16.6,10.8-25.8C141.4,179.5,101.8,192,97.9,195.6L97.9,195.6z"/>
<linearGradient id="SVGID_00000040564974356272764720000015843841264534204563_" gradientUnits="userSpaceOnUse" x1="248.9395" y1="1216.5344" x2="234.5469" y2="1129.7352" gradientTransform="matrix(0.92 0 0 0.92 -111.03 -841.8052)">
	<stop  offset="0" style="stop-color:#000000"/>
	<stop  offset="0.12" style="stop-color:#000000;stop-opacity:0.75"/>
	<stop  offset="1" style="stop-color:#000000;stop-opacity:0"/>
</linearGradient>
<path style="fill:url(#SVGID_00000040564974356272764720000015843841264534204563_);" d="M97.9,195.6c-1.8,1.7-3.5,3.5-5.1,5.4
	c-3.8,4.7-6.3,10.3-8.6,15.9c-6.2,14.9-11.6,30.8-10,46.9c0,1,0.3,1.9,0.7,2.8c0.7,1,1.8,1.6,2.9,1.9c3,1,6.2,1,9.4,1
	c12.3,0.1,24.6,0.2,36.8-0.4c1.9-0.1,3.9-0.2,5.5-1.3c1.1-0.9,2.1-2.1,2.7-3.4c3.3-6.3,4.3-13.6,6.8-20.3
	c3.4-8.7,12.8-16.6,10.8-25.8C141.4,179.5,101.8,192,97.9,195.6L97.9,195.6z"/>
<path class="st5" d="M153.3,163.4c-1.4,7.1-3,14.5-6.8,20.6c-1.4,2.5-3.4,4.5-5.9,5.9c-2.5,1.3-5.7,1.5-8-0.1
	c-1.2-0.8-2.4-2-3.7-1.4c-0.9,0.4-1.2,1.6-1.3,2.6c-0.3,2.5-0.3,5,0.1,7.5c0.2,0.7,0.2,1.4,0.1,2.1c-0.3,1.4-1.4,2.4-2.8,2.6
	c-1.3,0.2-2.7,0-3.9-0.6c-3.8-1.7-6.5-5.3-7.2-9.4c-0.2-1.4-0.3-2.8-0.3-4.2c-0.2-6.2-1.1-12.4-0.9-18.5c0.2-6.2,1.7-12.6,5.8-17.2
	c2.4-2.5,5.2-4.5,8.3-5.9c4.6-2.3,9.8-3.9,14.9-3c4.1,0.7,7.7,3.1,9.8,6.7C154.3,155.3,154.4,158.4,153.3,163.4L153.3,163.4z"/>
<path class="st6" d="M166,147.6c0.7-5.9-2.3-11.7-7.4-14.5c-2.3-1.2-4.8-1.6-7.2-2.3c-5.7-1.6-11.2-4.2-17-4.7s-12.6,1.5-15.2,7
	c-0.5,1-0.9,2.2-2,2.5c-0.6,0.1-1.1,0-1.7-0.2c-3.9-0.7-7.4,2.7-9.2,6.3c-2.8,5.9-3,12.7-2.4,19.2c0.6,6,2.1,12.5,6.8,16.2
	c0.5,0.4,1.2,0.7,1.6,0.3c0.2-0.2,0.3-0.5,0.4-0.8c0.5-2.3,0.7-4.6,0.5-7c-0.1-1.7-0.4-3.6,0.1-5.3c0.4-1.7,1.9-3.3,3.6-3.3
	c1.6,0,2.9,1.5,3.3,3.1c0.3,1.6,0.2,3.3-0.2,4.9c0.3,0.7,1.1-0.1,1.3-0.8c1.2-5.5,1.4-11.6,5.2-15.6c0.8,0.8,1.3,1.8,1.6,2.8
	c1.1-1.2,2.8-1.6,4.4-1.1c1.1,0.5,2.1,1.1,2.9,2C144.5,163.5,164.1,161.4,166,147.6L166,147.6z"/>
<path class="st2" d="M100.5,204.5c-2.9,2.1-4.3,5.9-4.3,9.5c-0.1,3.6,3.6,26.4,7.2,32.9c2.7,5,8.4,18.2,17,21.8
	c2.6,1.1,40.3,0.6,57.8-1.3c-0.1-4.2-0.3-8.5-0.6-12.7c0-0.6-0.1-1.1-0.5-1.6c-0.4-0.5-1.1-3.5-1.7-3.5c-10.2,0-20.5,3.2-30.7,3.5
	c-1.5,0.1-3,0-4.4-0.3c-1.2-0.3-2.3-0.8-3.4-1.4c-7.9-4.6-12.2-13.5-15.3-22.2c-2.4-6.7-4.3-13.7-7.7-19.9c-1.2-2.2-2.3-4.4-4.7-5.4
	C106.4,202.7,103.1,202.5,100.5,204.5L100.5,204.5z"/>
<linearGradient id="SVGID_00000121271675996866537970000009666934262137173413_" gradientUnits="userSpaceOnUse" x1="253.5463" y1="1211.6724" x2="277.3115" y2="1158.1912" gradientTransform="matrix(0.92 0 0 0.92 -111.03 -841.8052)">
	<stop  offset="0" style="stop-color:#000000"/>
	<stop  offset="0.12" style="stop-color:#000000;stop-opacity:0.75"/>
	<stop  offset="1" style="stop-color:#000000;stop-opacity:0"/>
</linearGradient>
<path style="fill:url(#SVGID_00000121271675996866537970000009666934262137173413_);" d="M100.5,204.5c-2.9,2.1-4.3,5.9-4.3,9.5
	c-0.1,3.6,3.6,26.4,7.2,32.9c2.7,5,8.4,18.2,17,21.8c2.6,1.1,40.3,0.6,57.8-1.3c-0.1-4.2-0.3-8.5-0.6-12.7c0-0.6-0.1-1.1-0.5-1.6
	c-0.4-0.5-1.1-3.5-1.7-3.5c-10.2,0-20.5,3.2-30.7,3.5c-1.5,0.1-3,0-4.4-0.3c-1.2-0.3-2.3-0.8-3.4-1.4c-7.9-4.6-12.2-13.5-15.3-22.2
	c-2.4-6.7-4.3-13.7-7.7-19.9c-1.2-2.2-2.3-4.4-4.7-5.4C106.4,202.7,103.1,202.5,100.5,204.5L100.5,204.5z"/>
<path class="st5" d="M176.7,248.8c5.3-0.5,11.2,0.7,14.6,4.9c0.4,0.4,0.6,0.9,0.7,1.4c0,0.5-0.1,0.9-0.4,1.3c-2,3.4-6.3,4.2-9.9,5.5
	c-1.9,0.7-3.7,1.6-5.4,2.7c-0.9,0.8-2,1.3-3.2,1.6c-2.6,0.4-4.7-1.9-5.8-4.3c-1.3-2.6-3.4-8-0.9-10.4
	C168.4,249.5,174.1,249,176.7,248.8L176.7,248.8z"/>
<path class="st5" d="M220.6,247.4c0.9,0.5,1.8,1.3,2.4,2.2c0.6,0.9,0.7,2.1,0.2,3.2c-0.4,0.6-1,1.1-1.6,1.5
	c-4.7,2.9-10.5,3.4-15.2,6.1c-1,0.7-2.1,1.2-3.3,1.5c-1.4,0-2.8-0.6-3.6-1.7c-0.9-1.1-1.5-2.4-2-3.7
	C191.9,241.4,212.6,242.2,220.6,247.4L220.6,247.4z"/>
<path class="st8" d="M85.7,240.8h22.1v18.5c0,3.6-2.9,6.5-6.4,6.5h-9.3c-3.5,0-6.4-2.9-6.4-6.5L85.7,240.8L85.7,240.8L85.7,240.8z"
	/>
<path class="st9" d="M106.3,245.2h6.7c2.9,0,5.3,2.4,5.3,5.4v2.2c0,3-2.4,5.4-5.3,5.4h-6.7V245.2L106.3,245.2L106.3,245.2z"/>
<path class="st2" d="M55.4,265.4h298.8c2.6,0,4.7,2.2,4.7,4.8l0,0c0,2.7-2.1,4.8-4.7,4.8H55.4c-2.6,0-4.7-2.2-4.7-4.8l0,0
	C50.7,267.5,52.8,265.4,55.4,265.4z"/>
<rect x="130.4" y="275.2" class="st2" width="168.9" height="59.8"/>
<rect x="65.2" y="275.2" class="st2" width="66.3" height="59.8"/>
<linearGradient id="SVGID_00000024724470209255195210000000461083675460680883_" gradientUnits="userSpaceOnUse" x1="372.7303" y1="1157.224" x2="332.4518" y2="1292.5583" gradientTransform="matrix(0.92 0 0 0.92 -106.52 -830.0352)">
	<stop  offset="0" style="stop-color:#000000"/>
	<stop  offset="0.12" style="stop-color:#000000;stop-opacity:0.75"/>
	<stop  offset="1" style="stop-color:#000000;stop-opacity:0"/>
</linearGradient>
<rect x="131.5" y="275.2" style="fill:url(#SVGID_00000024724470209255195210000000461083675460680883_);" width="167.8" height="59.8"/>
<linearGradient id="SVGID_00000168078485581726015940000001467453190351381909_" gradientUnits="userSpaceOnUse" x1="207.8279" y1="1163.1859" x2="247.0728" y2="1349.2979" gradientTransform="matrix(0.92 0 0 0.92 -106.52 -830.0352)">
	<stop  offset="0" style="stop-color:#000000"/>
	<stop  offset="0.12" style="stop-color:#000000;stop-opacity:0.75"/>
	<stop  offset="1" style="stop-color:#000000;stop-opacity:0"/>
</linearGradient>
<rect x="65.2" y="275.2" style="fill:url(#SVGID_00000168078485581726015940000001467453190351381909_);" width="66.3" height="59.8"/>
<path class="st1" d="M358.4,67.1v38.1H43.1V67.1c0-4.3,3.4-7.8,7.6-7.8h300.1C355,59.3,358.4,62.8,358.4,67.1z"/>
<path class="st2" d="M288.6,265.2H179.2c-3.1,0-5.5-2.5-5.5-5.7l0,0c0-3.1,2.5-5.7,5.5-5.7h109.3c3.1,0,5.5,2.5,5.5,5.7l0,0
	C294.1,262.7,291.6,265.2,288.6,265.2z"/>
<linearGradient id="SVGID_00000137847420680550633150000003996354603577450883_" gradientUnits="userSpaceOnUse" x1="374.651" y1="1209.0145" x2="375.2062" y2="1183.4006" gradientTransform="matrix(0.92 0 0 0.92 -111.03 -841.8152)">
	<stop  offset="0" style="stop-color:#000000"/>
	<stop  offset="0.12" style="stop-color:#000000;stop-opacity:0.75"/>
	<stop  offset="1" style="stop-color:#000000;stop-opacity:0"/>
</linearGradient>
<path style="fill:url(#SVGID_00000137847420680550633150000003996354603577450883_);" d="M288.6,265.2H179.2c-3.1,0-5.5-2.5-5.5-5.7
	l0,0c0-3.1,2.5-5.7,5.5-5.7h109.3c3.1,0,5.5,2.5,5.5,5.7l0,0C294.1,262.7,291.6,265.2,288.6,265.2z"/>
<path class="st2" d="M217.1,265.2H301l22.1-57.3c1-2.6-0.2-5.5-2.8-6.5c-0.6-0.2-1.2-0.3-1.8-0.3h-65.8c-6.5,0-12.4,4.1-14.8,10.3
	L217.1,265.2L217.1,265.2z"/>
<path class="st2" d="M221.4,265.3h79.7l21-54.4c1-2.5-0.2-5.2-2.6-6.2c-0.5-0.2-1.1-0.3-1.7-0.3h-62.5c-6.2,0-11.8,3.9-14,9.8
	L221.4,265.3L221.4,265.3z"/>
<linearGradient id="SVGID_00000022538108583101037650000000419931306046909869_" gradientUnits="userSpaceOnUse" x1="414.2013" y1="1224.8684" x2="418.0122" y2="1128.3795" gradientTransform="matrix(0.92 0 0 0.92 -111.03 -841.8052)">
	<stop  offset="0" style="stop-color:#000000"/>
	<stop  offset="0.12" style="stop-color:#000000;stop-opacity:0.75"/>
	<stop  offset="1" style="stop-color:#000000;stop-opacity:0"/>
</linearGradient>
<path style="fill:url(#SVGID_00000022538108583101037650000000419931306046909869_);" d="M221.4,265.3h79.7l21-54.4
	c1-2.5-0.2-5.2-2.6-6.2c-0.5-0.2-1.1-0.3-1.7-0.3h-62.5c-6.2,0-11.8,3.9-14,9.8L221.4,265.3L221.4,265.3z"/>
<rect x="193.6" y="183" class="st14" width="118" height="6.8"/>
<rect x="193.6" y="171.4" class="st8" width="83.9" height="6.8"/>
<rect x="289" y="171.4" class="st8" width="56.2" height="6.8"/>
<rect x="258.6" y="128.5" class="st8" width="86.3" height="6"/>
<rect x="240.5" y="139.2" class="st14" width="92.4" height="6"/>
<rect x="195.2" y="128.5" class="st8" width="56.8" height="6"/>
<rect x="220.1" y="149.6" class="st8" width="124.8" height="6"/>
<rect x="195.2" y="149.6" class="st14" width="18.3" height="6"/>
<rect x="262.6" y="160.3" class="st14" width="82.4" height="6"/>
<rect x="195.2" y="160.3" class="st8" width="56.8" height="6"/>
<rect x="195.2" y="138.9" class="st8" width="36.5" height="6"/>
<rect x="227" y="108.2" class="st8" width="86.3" height="6"/>
<rect x="209" y="118.9" class="st14" width="92.4" height="6"/>
<rect x="163.7" y="108.2" class="st8" width="56.8" height="6"/>
<rect x="226.3" y="95.7" class="st8" width="86.3" height="6"/>
<rect x="162.9" y="84.4" class="st8" width="56.8" height="6"/>
<rect x="162.9" y="74.1" class="st8" width="56.8" height="6"/>
<rect x="163.7" y="118.7" class="st8" width="36.5" height="6"/>
</svg>
